{
  "accessors": [
    {
      "bufferView": 2,
      "componentType": 5126,
      "count": 532,
      "max": [
        0.011877506971359253,
        0.07956001162528992,
        0.02634667046368122
      ],
      "min": [
        -0.011877506971359253,
        -0.07965164631605148,
        -0.051698967814445496
      ],
      "type": "VEC3"
    },
    {
      "bufferView": 2,
      "byteOffset": 6384,
      "componentType": 5126,
      "count": 532,
      "max": [
        1.0,
        1.0,
        1.0
      ],
      "min": [
        -1.0,
        -0.996248722076416,
        -1.0
      ],
      "type": "VEC3"
    },
    {
      "bufferView": 3,
      "componentType": 5126,
      "count": 532,
      "max": [
        1.0,
        1.0,
        1.0,
        1.0
      ],
      "min": [
        -1.0,
        -0.9035025238990784,
        -1.0,
        -1.0
      ],
      "type": "VEC4"
    },
    {
      "bufferView": 1,
      "componentType": 5126,
      "count": 532,
      "max": [
        1.9122895002365112,
        0.9826738834381104
      ],
      "min": [
        0.00390625,
        0.0039062583819031715
      ],
      "type": "VEC2"
    },
    {
      "bufferView": 0,
      "componentType": 5125,
      "count": 1752,
      "type": "SCALAR"
    },
    {
      "bufferView": 2,
      "byteOffset": 12768,
      "componentType": 5126,
      "count": 245,
      "max": [
        0.010999999940395355,
        0.07738793641328812,
        0.05142155662178993
      ],
      "min": [
        -0.010999999940395355,
        -0.07474154233932495,
        0.013846046291291714
      ],
      "type": "VEC3"
    },
    {
      "bufferView": 2,
      "byteOffset": 15708,
      "componentType": 5126,
      "count": 245,
      "max": [
        1.0,
        1.0,
        1.0
      ],
      "min": [
        -1.0,
        -1.0,
        -1.0
      ],
      "type": "VEC3"
    },
    {
      "bufferView": 3,
      "byteOffset": 8512,
      "componentType": 5126,
      "count": 245,
      "max": [
        1.0,
        1.0,
        1.0,
        1.0
      ],
      "min": [
        -1.0,
        -1.0,
        -1.0,
        -1.0
      ],
      "type": "VEC4"
    },
    {
      "bufferView": 1,
      "byteOffset": 4256,
      "componentType": 5126,
      "count": 245,
      "max": [
        1.47443687915802,
        0.983136773109436
      ],
      "min": [
        0.00390625,
        0.0039062583819031715
      ],
      "type": "VEC2"
    },
    {
      "bufferView": 0,
      "byteOffset": 7008,
      "componentType": 5125,
      "count": 570,
      "type": "SCALAR"
    },
    {
      "bufferView": 2,
      "byteOffset": 18648,
      "componentType": 5126,
      "count": 146,
      "max": [
        0.0038899770006537437,
        0.008056792430579662,
        0.0
      ],
      "min": [
        -0.0038899779319763184,
        -0.015431690029799938,
        -0.025955401360988617
      ],
      "type": "VEC3"
    },
    {
      "bufferView": 2,
      "byteOffset": 20400,
      "componentType": 5126,
      "count": 146,
      "max": [
        1.0,
        0.9999852776527405,
        1.0
      ],
      "min": [
        -1.0,
        -0.9895521402359009,
        -0.9835453629493713
      ],
      "type": "VEC3"
    },
    {
      "bufferView": 3,
      "byteOffset": 12432,
      "componentType": 5126,
      "count": 146,
      "max": [
        1.0,
        0.9835453629493713,
        0.9895520806312561,
        1.0
      ],
      "min": [
        -1.0,
        -0.9394127726554871,
        -0.9924345016479492,
        -1.0
      ],
      "type": "VEC4"
    },
    {
      "bufferView": 1,
      "byteOffset": 6216,
      "componentType": 5126,
      "count": 146,
      "max": [
        1.9612257480621338,
        0.9818500876426697
      ],
      "min": [
        0.005849532317370176,
        0.07211742550134659
      ],
      "type": "VEC2"
    },
    {
      "bufferView": 0,
      "byteOffset": 9288,
      "componentType": 5125,
      "count": 324,
      "type": "SCALAR"
    },
    {
      "bufferView": 2,
      "byteOffset": 22152,
      "componentType": 5126,
      "count": 122,
      "max": [
        0.0075940703973174095,
        0.07956001162528992,
        0.046653952449560165
      ],
      "min": [
        -0.007594071328639984,
        -0.007533099502325058,
        0.029599914327263832
      ],
      "type": "VEC3"
    },
    {
      "bufferView": 2,
      "byteOffset": 23616,
      "componentType": 5126,
      "count": 122,
      "max": [
        1.0,
        1.0,
        1.0
      ],
      "min": [
        -1.0,
        -1.0,
        -0.9914448261260986
      ],
      "type": "VEC3"
    },
    {
      "bufferView": 3,
      "byteOffset": 14768,
      "componentType": 5126,
      "count": 122,
      "max": [
        1.0,
        1.0,
        1.0,
        1.0
      ],
      "min": [
        -1.0,
        -1.0,
        -2.7735025014408166e-06,
        -1.0
      ],
      "type": "VEC4"
    },
    {
      "bufferView": 1,
      "byteOffset": 7384,
      "componentType": 5126,
      "count": 122,
      "max": [
        1.9788908958435059,
        0.9835463762283325
      ],
      "min": [
        0.20976543426513672,
        0.21534600853919983
      ],
      "type": "VEC2"
    },
    {
      "bufferView": 0,
      "byteOffset": 10584,
      "componentType": 5125,
      "count": 288,
      "type": "SCALAR"
    },
    {
      "bufferView": 2,
      "byteOffset": 25080,
      "componentType": 5126,
      "count": 188,
      "max": [
        0.011831632815301418,
        -0.010588172823190689,
        0.026731576770544052
      ],
      "min": [
        -0.011831632815301418,
        -0.07341612130403519,
        -0.057902272790670395
      ],
      "type": "VEC3"
    },
    {
      "bufferView": 2,
      "byteOffset": 27336,
      "componentType": 5126,
      "count": 188,
      "max": [
        1.0,
        0.9507778882980347,
        1.0
      ],
      "min": [
        -1.0,
        -0.9537690877914429,
        -0.9947406053543091
      ],
      "type": "VEC3"
    },
    {
      "bufferView": 3,
      "byteOffset": 16720,
      "componentType": 5126,
      "count": 188,
      "max": [
        1.0,
        0.9991788268089294,
        0.9945969581604004,
        1.0
      ],
      "min": [
        -1.0,
        -0.9947407245635986,
        -0.04057909920811653,
        -1.0
      ],
      "type": "VEC4"
    },
    {
      "bufferView": 1,
      "byteOffset": 8360,
      "componentType": 5126,
      "count": 188,
      "max": [
        1.9801853895187378,
        0.9638935327529907
      ],
      "min": [
        0.00390625,
        0.00390625
      ],
      "type": "VEC2"
    },
    {
      "bufferView": 0,
      "byteOffset": 11736,
      "componentType": 5125,
      "count": 432,
      "type": "SCALAR"
    },
    {
      "bufferView": 2,
      "byteOffset": 29592,
      "componentType": 5126,
      "count": 72,
      "max": [
        0.0050456225872039795,
        -0.019680500030517578,
        0.028597235679626465
      ],
      "min": [
        -0.0050456225872039795,
        -0.03920654207468033,
        0.018037403002381325
      ],
      "type": "VEC3"
    },
    {
      "bufferView": 2,
      "byteOffset": 30456,
      "componentType": 5126,
      "count": 72,
      "max": [
        0.9999697208404541,
        0.9994450807571411,
        0.980488121509552
      ],
      "min": [
        -0.9999697208404541,
        -0.9994449019432068,
        -0.9799914360046387
      ],
      "type": "VEC3"
    },
    {
      "bufferView": 3,
      "byteOffset": 19728,
      "componentType": 5126,
      "count": 72,
      "max": [
        1.0,
        0.9995535612106323,
        0.037989046424627304,
        1.0
      ],
      "min": [
        -1.0,
        -7.590208952024113e-06,
        -0.9994450807571411,
        -1.0
      ],
      "type": "VEC4"
    },
    {
      "bufferView": 1,
      "byteOffset": 9864,
      "componentType": 5126,
      "count": 72,
      "max": [
        1.9887629747390747,
        0.6924077272415161
      ],
      "min": [
        0.10709885507822037,
        0.23897318542003632
      ],
      "type": "VEC2"
    },
    {
      "bufferView": 0,
      "byteOffset": 13464,
      "componentType": 5125,
      "count": 180,
      "type": "SCALAR"
    },
    {
      "bufferView": 2,
      "byteOffset": 31320,
      "componentType": 5126,
      "count": 156,
      "max": [
        0.0045816912315785885,
        -0.009249350056052208,
        0.028283026069402695
      ],
      "min": [
        -0.0045816912315785885,
        -0.02361835539340973,
        0.019003987312316895
      ],
      "type": "VEC3"
    },
    {
      "bufferView": 2,
      "byteOffset": 33192,
      "componentType": 5126,
      "count": 156,
      "max": [
        1.0,
        0.9621765613555908,
        0.9806879758834839
      ],
      "min": [
        -1.0,
        -0.9994449615478516,
        -0.9802408218383789
      ],
      "type": "VEC3"
    },
    {
      "bufferView": 3,
      "byteOffset": 20880,
      "componentType": 5126,
      "count": 156,
      "max": [
        1.0,
        1.1340397350068088e-06,
        0.2219274938106537,
        1.0
      ],
      "min": [
        -1.0,
        -0.9999889731407166,
        -0.19140762090682983,
        -1.0
      ],
      "type": "VEC4"
    },
    {
      "bufferView": 1,
      "byteOffset": 10440,
      "componentType": 5126,
      "count": 156,
      "max": [
        1.9931683540344238,
        0.5523887872695923
      ],
      "min": [
        0.4578348994255066,
        0.4931374192237854
      ],
      "type": "VEC2"
    },
    {
      "bufferView": 0,
      "byteOffset": 14184,
      "componentType": 5125,
      "count": 714,
      "type": "SCALAR"
    },
    {
      "bufferView": 2,
      "byteOffset": 35064,
      "componentType": 5126,
      "count": 51,
      "max": [
        -0.008347799070179462,
        -0.019599270075559616,
        0.02569948323071003
      ],
      "min": [
        -0.014523480087518692,
        -0.030450940132141113,
        0.018713535740971565
      ],
      "type": "VEC3"
    },
    {
      "bufferView": 2,
      "byteOffset": 35676,
      "componentType": 5126,
      "count": 51,
      "max": [
        0.0,
        1.0,
        1.0
      ],
      "min": [
        -1.0,
        -1.0,
        -1.0
      ],
      "type": "VEC3"
    },
    {
      "bufferView": 3,
      "byteOffset": 23376,
      "componentType": 5126,
      "count": 51,
      "max": [
        1.0,
        1.171970552604762e-06,
        1.0,
        1.0
      ],
      "min": [
        -1.0,
        -1.0,
        -8.5945788441677e-07,
        1.0
      ],
      "type": "VEC4"
    },
    {
      "bufferView": 1,
      "byteOffset": 11688,
      "componentType": 5126,
      "count": 51,
      "max": [
        0.9467300176620483,
        0.9822185635566711
      ],
      "min": [
        0.00390625,
        0.0039062597788870335
      ],
      "type": "VEC2"
    },
    {
      "bufferView": 0,
      "byteOffset": 17040,
      "componentType": 5125,
      "count": 111,
      "type": "SCALAR"
    }
  ],
  "asset": {
    "extras": {
      "author": "FireWarden (https://sketchfab.com/FireWarden)",
      "license": "CC-BY-4.0 (http://creativecommons.org/licenses/by/4.0/)",
      "source": "https://sketchfab.com/3d-models/lowpoly-generic-pistol-43-937ac20307bb470ca07d84ccae7507aa",
      "title": "Lowpoly Generic Pistol 43"
    },
    "generator": "Sketchfab-14.49.0",
    "version": "2.0"
  },
  "bufferViews": [
    {
      "buffer": 0,
      "byteLength": 17484,
      "name": "floatBufferViews",
      "target": 34963
    },
    {
      "buffer": 0,
      "byteLength": 12096,
      "byteOffset": 17484,
      "byteStride": 8,
      "name": "floatBufferViews",
      "target": 34962
    },
    {
      "buffer": 0,
      "byteLength": 36288,
      "byteOffset": 29580,
      "byteStride": 12,
      "name": "floatBufferViews",
      "target": 34962
    },
    {
      "buffer": 0,
      "byteLength": 24192,
      "byteOffset": 65868,
      "byteStride": 16,
      "name": "floatBufferViews",
      "target": 34962
    }
  ],
  "buffers": [
    {
      "byteLength": 90060,
      "uri": "scene.bin"
    }
  ],
  "images": [
    {
      "uri": "textures/M_G43_baseColor.png"
    },
    {
      "uri": "textures/M_G43_metallicRoughness.png"
    },
    {
      "uri": "textures/M_G43_normal.png"
    }
  ],
  "materials": [
    {
      "name": "M_G43",
      "normalTexture": {
        "index": 2
      },
      "occlusionTexture": {
        "index": 1
      },
      "pbrMetallicRoughness": {
        "baseColorTexture": {
          "index": 0
        },
        "metallicRoughnessTexture": {
          "index": 1
        }
      }
    }
  ],
  "meshes": [
    {
      "name": "G43_M_G43_0",
      "primitives": [
        {
          "attributes": {
            "NORMAL": 1,
            "POSITION": 0,
            "TANGENT": 2,
            "TEXCOORD_0": 3
          },
          "indices": 4,
          "material": 0,
          "mode": 4
        }
      ]
    },
    {
      "name": "G43_Slide_M_G43_0",
      "primitives": [
        {
          "attributes": {
            "NORMAL": 6,
            "POSITION": 5,
            "TANGENT": 7,
            "TEXCOORD_0": 8
          },
          "indices": 9,
          "material": 0,
          "mode": 4
        }
      ]
    },
    {
      "name": "G43_Trigger_M_G43_0",
      "primitives": [
        {
          "attributes": {
            "NORMAL": 11,
            "POSITION": 10,
            "TANGENT": 12,
            "TEXCOORD_0": 13
          },
          "indices": 14,
          "material": 0,
          "mode": 4
        }
      ]
    },
    {
      "name": "G43_Barrel_M_G43_0",
      "primitives": [
        {
          "attributes": {
            "NORMAL": 16,
            "POSITION": 15,
            "TANGENT": 17,
            "TEXCOORD_0": 18
          },
          "indices": 19,
          "material": 0,
          "mode": 4
        }
      ]
    },
    {
      "name": "G43_Magazine_M_G43_0",
      "primitives": [
        {
          "attributes": {
            "NORMAL": 21,
            "POSITION": 20,
            "TANGENT": 22,
            "TEXCOORD_0": 23
          },
          "indices": 24,
          "material": 0,
          "mode": 4
        }
      ]
    },
    {
      "name": "9mm_Shell_M_G43_0",
      "primitives": [
        {
          "attributes": {
            "NORMAL": 26,
            "POSITION": 25,
            "TANGENT": 27,
            "TEXCOORD_0": 28
          },
          "indices": 29,
          "material": 0,
          "mode": 4
        }
      ]
    },
    {
      "name": "9mm_Bullet_M_G43_0",
      "primitives": [
        {
          "attributes": {
            "NORMAL": 31,
            "POSITION": 30,
            "TANGENT": 32,
            "TEXCOORD_0": 33
          },
          "indices": 34,
          "material": 0,
          "mode": 4
        }
      ]
    },
    {
      "name": "G43_SlideStop_M_G43_0",
      "primitives": [
        {
          "attributes": {
            "NORMAL": 36,
            "POSITION": 35,
            "TANGENT": 37,
            "TEXCOORD_0": 38
          },
          "indices": 39,
          "material": 0,
          "mode": 4
        }
      ]
    }
  ],
  "nodes": [
    {
      "children": [
        1
      ],
      "matrix": [
        1.0,
        0.0,
        0.0,
        0.0,
        0.0,
        2.220446049250313e-16,
        -1.0,
        0.0,
        0.0,
        1.0,
        2.220446049250313e-16,
        0.0,
        0.0,
        0.0,
        0.0,
        1.0
      ],
      "name": "Sketchfab_model"
    },
    {
      "children": [
        2
      ],
      "matrix": [
        0.009999999776482582,
        0.0,
        0.0,
        0.0,
        0.0,
        0.0,
        0.009999999776482582,
        0.0,
        0.0,
        -0.009999999776482582,
        0.0,
        0.0,
        0.0,
        0.0,
        0.0,
        1.0
      ],
      "name": "2f48ba98c2b04732afd15667f9a60b2b.fbx"
    },
    {
      "children": [
        3
      ],
      "name": "RootNode"
    },
    {
      "children": [
        4,
        5,
        7,
        9,
        11,
        17
      ],
      "matrix": [
        100.0,
        0.0,
        0.0,
        0.0,
        0.0,
        -1.629206793918314e-05,
        -99.99999999999868,
        0.0,
        0.0,
        99.99999999999868,
        -1.629206793918314e-05,
        0.0,
        5.88938090698534e-16,
        2.652341365814209,
        -4.808860778808594,
        1.0
      ],
      "name": "G43"
    },
    {
      "mesh": 0,
      "name": "G43_M_G43_0"
    },
    {
      "children": [
        6
      ],
      "matrix": [
        1.0,
        0.0,
        0.0,
        0.0,
        0.0,
        1.0,
        -2.646977960169688e-23,
        0.0,
        0.0,
        2.646977960169688e-23,
        1.0,
        0.0,
        0.0,
        0.0,
        0.0,
        1.0
      ],
      "name": "G43_Slide"
    },
    {
      "mesh": 1,
      "name": "G43_Slide_M_G43_0"
    },
    {
      "children": [
        8
      ],
      "matrix": [
        1.0,
        0.0,
        0.0,
        0.0,
        0.0,
        1.0,
        -2.646977960169688e-23,
        0.0,
        0.0,
        2.646977960169688e-23,
        1.0,
        0.0,
        0.0,
        0.004755392670631409,
        0.012237144634127617,
        1.0
      ],
      "name": "G43_Trigger"
    },
    {
      "mesh": 2,
      "name": "G43_Trigger_M_G43_0"
    },
    {
      "children": [
        10
      ],
      "matrix": [
        1.0,
        0.0,
        0.0,
        0.0,
        0.0,
        1.0,
        -2.646977960169688e-23,
        0.0,
        0.0,
        2.646977960169688e-23,
        1.0,
        0.0,
        0.0,
        0.0,
        0.0,
        1.0
      ],
      "name": "G43_Barrel"
    },
    {
      "mesh": 3,
      "name": "G43_Barrel_M_G43_0"
    },
    {
      "children": [
        12,
        13
      ],
      "matrix": [
        1.0,
        0.0,
        0.0,
        0.0,
        0.0,
        1.0,
        -2.646977960169688e-23,
        0.0,
        0.0,
        2.646977960169688e-23,
        1.0,
        0.0,
        0.0,
        0.0,
        0.0,
        1.0
      ],
      "name": "G43_Magazine"
    },
    {
      "mesh": 4,
      "name": "G43_Magazine_M_G43_0"
    },
    {
      "children": [
        14,
        15
      ],
      "matrix": [
        1.0,
        0.0,
        0.0,
        0.0,
        0.0,
        1.0,
        -2.646977960169688e-23,
        0.0,
        0.0,
        2.646977960169688e-23,
        1.0,
        0.0,
        0.0,
        0.0,
        0.0,
        1.0
      ],
      "name": "9mm_Shell"
    },
    {
      "mesh": 5,
      "name": "9mm_Shell_M_G43_0"
    },
    {
      "children": [
        16
      ],
      "matrix": [
        1.0,
        0.0,
        0.0,
        0.0,
        0.0,
        1.0,
        -2.646977960169688e-23,
        0.0,
        0.0,
        2.646977960169688e-23,
        1.0,
        0.0,
        0.0,
        0.0,
        0.0,
        1.0
      ],
      "name": "9mm_Bullet"
    },
    {
      "mesh": 6,
      "name": "9mm_Bullet_M_G43_0"
    },
    {
      "children": [
        18
      ],
      "matrix": [
        1.0,
        0.0,
        0.0,
        0.0,
        0.0,
        1.0,
        -2.646977960169688e-23,
        0.0,
        0.0,
        2.646977960169688e-23,
        1.0,
        0.0,
        0.0,
        0.0,
        0.0,
        1.0
      ],
      "name": "G43_SlideStop"
    },
    {
      "mesh": 7,
      "name": "G43_SlideStop_M_G43_0"
    }
  ],
  "samplers": [
    {
      "magFilter": 9729,
      "minFilter": 9987,
      "wrapS": 10497,
      "wrapT": 10497
    }
  ],
  "scene": 0,
  "scenes": [
    {
      "name": "Sketchfab_Scene",
      "nodes": [
        0
      ]
    }
  ],
  "textures": [
    {
      "sampler": 0,
      "source": 0
    },
    {
      "sampler": 0,
      "source": 1
    },
    {
      "sampler": 0,
      "source": 2
    }
  ]
}
